G04 Layer_Color=2752767*
%FSLAX25Y25*%
%MOIN*%
G70*
G01*
G75*
%ADD10C,0.00200*%
%ADD11C,0.00267*%
D10*
X-92926Y-37099D02*
Y-35499D01*
X-91326D01*
Y-37099D01*
X-92926D01*
Y-27099D02*
Y-25499D01*
X-91326D01*
Y-27099D01*
X-92926D01*
Y-17099D02*
Y-15499D01*
X-91326D01*
Y-17099D01*
X-92926D01*
Y-7099D02*
Y-5499D01*
X-91326D01*
Y-7099D01*
X-92926D01*
X-93241Y-77178D02*
Y-75578D01*
X-91641D01*
Y-77178D01*
X-93241D01*
X-83241D02*
Y-75578D01*
X-81641D01*
Y-77178D01*
X-83241D01*
X-73241D02*
Y-75578D01*
X-71641D01*
Y-77178D01*
X-73241D01*
X-63241D02*
Y-75578D01*
X-61641D01*
Y-77178D01*
X-63241D01*
X-46200Y-86000D02*
Y-84400D01*
X-44600D01*
Y-86000D01*
X-46200D01*
X-36200D02*
Y-84400D01*
X-34600D01*
Y-86000D01*
X-36200D01*
X-26200D02*
Y-84400D01*
X-24600D01*
Y-86000D01*
X-26200D01*
X-16200D02*
Y-84400D01*
X-14600D01*
Y-86000D01*
X-16200D01*
X-6200D02*
Y-84400D01*
X-4600D01*
Y-86000D01*
X-6200D01*
X-51981Y15814D02*
Y17414D01*
X-50381D01*
Y15814D01*
X-51981D01*
Y25814D02*
Y27414D01*
X-50381D01*
Y25814D01*
X-51981D01*
Y35814D02*
Y37414D01*
X-50381D01*
Y35814D01*
X-51981D01*
Y45814D02*
Y47414D01*
X-50381D01*
Y45814D01*
X-51981D01*
Y55814D02*
Y57414D01*
X-50381D01*
Y55814D01*
X-51981D01*
Y65814D02*
Y67414D01*
X-50381D01*
Y65814D01*
X-51981D01*
Y75814D02*
Y77414D01*
X-50381D01*
Y75814D01*
X-51981D01*
Y85814D02*
Y87414D01*
X-50381D01*
Y85814D01*
X-51981D01*
X-163500Y-6300D02*
Y-4700D01*
X-161900D01*
Y-6300D01*
X-163500D01*
X-153500D02*
Y-4700D01*
X-151900D01*
Y-6300D01*
X-153500D01*
X-143500D02*
Y-4700D01*
X-141900D01*
Y-6300D01*
X-143500D01*
X-133500D02*
Y-4700D01*
X-131900D01*
Y-6300D01*
X-133500D01*
X-2532Y6680D02*
Y8280D01*
X-932D01*
Y6680D01*
X-2532D01*
Y16680D02*
Y18280D01*
X-932D01*
Y16680D01*
X-2532D01*
X7468Y6680D02*
Y8280D01*
X9068D01*
Y6680D01*
X7468D01*
Y16680D02*
Y18280D01*
X9068D01*
Y16680D01*
X7468D01*
X17468Y6680D02*
Y8280D01*
X19068D01*
Y6680D01*
X17468D01*
Y16680D02*
Y18280D01*
X19068D01*
Y16680D01*
X17468D01*
X27468Y6680D02*
Y8280D01*
X29068D01*
Y6680D01*
X27468D01*
Y16680D02*
Y18280D01*
X29068D01*
Y16680D01*
X27468D01*
X-29528Y54318D02*
X-30328Y55918D01*
X-28728D01*
X-29528Y54318D01*
X-11218Y68098D02*
X-10818Y68498D01*
X-10418D01*
X-10818Y68898D01*
X-10418Y69298D01*
X-10818D01*
X-11218Y69698D01*
X-11618Y69298D01*
X-12018D01*
X-11618Y68898D01*
X-12018Y68498D01*
X-11618D01*
X-11218Y68098D01*
Y44478D02*
X-10818Y44878D01*
X-10418D01*
X-10818Y45278D01*
X-10418Y45678D01*
X-10818D01*
X-11218Y46078D01*
X-11618Y45678D01*
X-12018D01*
X-11618Y45278D01*
X-12018Y44878D01*
X-11618D01*
X-11218Y44478D01*
X184239Y-75603D02*
Y-74003D01*
X185839D01*
Y-75603D01*
X184239D01*
X174239D02*
Y-74003D01*
X175839D01*
Y-75603D01*
X174239D01*
X164239D02*
Y-74003D01*
X165839D01*
Y-75603D01*
X164239D01*
X154239D02*
Y-74003D01*
X155839D01*
Y-75603D01*
X154239D01*
X144239D02*
Y-74003D01*
X145839D01*
Y-75603D01*
X144239D01*
X134239D02*
Y-74003D01*
X135839D01*
Y-75603D01*
X134239D01*
X124239D02*
Y-74003D01*
X125839D01*
Y-75603D01*
X124239D01*
X114239D02*
Y-74003D01*
X115839D01*
Y-75603D01*
X114239D01*
X104239D02*
Y-74003D01*
X105839D01*
Y-75603D01*
X104239D01*
X94239D02*
Y-74003D01*
X95839D01*
Y-75603D01*
X94239D01*
X84239D02*
Y-74003D01*
X85839D01*
Y-75603D01*
X84239D01*
X74239D02*
Y-74003D01*
X75839D01*
Y-75603D01*
X74239D01*
X64239D02*
Y-74003D01*
X65839D01*
Y-75603D01*
X64239D01*
X54239D02*
Y-74003D01*
X55839D01*
Y-75603D01*
X54239D01*
X44239D02*
Y-74003D01*
X45839D01*
Y-75603D01*
X44239D01*
X34239D02*
Y-74003D01*
X35839D01*
Y-75603D01*
X34239D01*
X24239D02*
Y-74003D01*
X25839D01*
Y-75603D01*
X24239D01*
X14239D02*
Y-74003D01*
X15839D01*
Y-75603D01*
X14239D01*
X4239D02*
Y-74003D01*
X5839D01*
Y-75603D01*
X4239D01*
X-5761D02*
Y-74003D01*
X-4161D01*
Y-75603D01*
X-5761D01*
X184239Y-16548D02*
Y-14948D01*
X185839D01*
Y-16548D01*
X184239D01*
X174239D02*
Y-14948D01*
X175839D01*
Y-16548D01*
X174239D01*
X164239D02*
Y-14948D01*
X165839D01*
Y-16548D01*
X164239D01*
X154239D02*
Y-14948D01*
X155839D01*
Y-16548D01*
X154239D01*
X144239D02*
Y-14948D01*
X145839D01*
Y-16548D01*
X144239D01*
X134239D02*
Y-14948D01*
X135839D01*
Y-16548D01*
X134239D01*
X124239D02*
Y-14948D01*
X125839D01*
Y-16548D01*
X124239D01*
X114239D02*
Y-14948D01*
X115839D01*
Y-16548D01*
X114239D01*
X104239D02*
Y-14948D01*
X105839D01*
Y-16548D01*
X104239D01*
X94239D02*
Y-14948D01*
X95839D01*
Y-16548D01*
X94239D01*
X84239D02*
Y-14948D01*
X85839D01*
Y-16548D01*
X84239D01*
X74239D02*
Y-14948D01*
X75839D01*
Y-16548D01*
X74239D01*
X64239D02*
Y-14948D01*
X65839D01*
Y-16548D01*
X64239D01*
X54239D02*
Y-14948D01*
X55839D01*
Y-16548D01*
X54239D01*
X44239D02*
Y-14948D01*
X45839D01*
Y-16548D01*
X44239D01*
X34239D02*
Y-14948D01*
X35839D01*
Y-16548D01*
X34239D01*
X24239D02*
Y-14948D01*
X25839D01*
Y-16548D01*
X24239D01*
X14239D02*
Y-14948D01*
X15839D01*
Y-16548D01*
X14239D01*
X4239D02*
Y-14948D01*
X5839D01*
Y-16548D01*
X4239D01*
X-5761D02*
Y-14948D01*
X-4161D01*
Y-16548D01*
X-5761D01*
X184200Y-86400D02*
Y-84800D01*
X185800D01*
Y-86400D01*
X184200D01*
X174200D02*
Y-84800D01*
X175800D01*
Y-86400D01*
X174200D01*
X164200D02*
Y-84800D01*
X165800D01*
Y-86400D01*
X164200D01*
X154200D02*
Y-84800D01*
X155800D01*
Y-86400D01*
X154200D01*
X144200D02*
Y-84800D01*
X145800D01*
Y-86400D01*
X144200D01*
X134200D02*
Y-84800D01*
X135800D01*
Y-86400D01*
X134200D01*
X64300D02*
Y-84800D01*
X65900D01*
Y-86400D01*
X64300D01*
X54300D02*
Y-84800D01*
X55900D01*
Y-86400D01*
X54300D01*
X44300D02*
Y-84800D01*
X45900D01*
Y-86400D01*
X44300D01*
X34300D02*
Y-84800D01*
X35900D01*
Y-86400D01*
X34300D01*
X-93241Y-66942D02*
Y-65342D01*
X-91641D01*
Y-66942D01*
X-93241D01*
X-83241D02*
Y-65342D01*
X-81641D01*
Y-66942D01*
X-83241D01*
X-73241D02*
Y-65342D01*
X-71641D01*
Y-66942D01*
X-73241D01*
X-63241D02*
Y-65342D01*
X-61641D01*
Y-66942D01*
X-63241D01*
X68491Y26365D02*
Y27965D01*
X70091D01*
Y26365D01*
X68491D01*
X78491D02*
Y27965D01*
X80091D01*
Y26365D01*
X78491D01*
X68491Y16365D02*
Y17965D01*
X70091D01*
Y16365D01*
X68491D01*
X78491D02*
Y17965D01*
X80091D01*
Y16365D01*
X78491D01*
X68491Y6365D02*
Y7965D01*
X70091D01*
Y6365D01*
X68491D01*
X78491D02*
Y7965D01*
X80091D01*
Y6365D01*
X78491D01*
X94300Y6700D02*
Y8300D01*
X95900D01*
Y6700D01*
X94300D01*
X104300D02*
Y8300D01*
X105900D01*
Y6700D01*
X104300D01*
X114300D02*
Y8300D01*
X115900D01*
Y6700D01*
X114300D01*
X124300D02*
Y8300D01*
X125900D01*
Y6700D01*
X124300D01*
X134300D02*
Y8300D01*
X135900D01*
Y6700D01*
X134300D01*
X47861Y26365D02*
Y27965D01*
X49461D01*
Y26365D01*
X47861D01*
X57861D02*
Y27965D01*
X59461D01*
Y26365D01*
X57861D01*
X47861Y16365D02*
Y17965D01*
X49461D01*
Y16365D01*
X47861D01*
X57861D02*
Y17965D01*
X59461D01*
Y16365D01*
X57861D01*
X47861Y6365D02*
Y7965D01*
X49461D01*
Y6365D01*
X47861D01*
X57861D02*
Y7965D01*
X59461D01*
Y6365D01*
X57861D01*
X78491Y46444D02*
Y48044D01*
X80091D01*
Y46444D01*
X78491D01*
Y56444D02*
Y58044D01*
X80091D01*
Y56444D01*
X78491D01*
Y66444D02*
Y68044D01*
X80091D01*
Y66444D01*
X78491D01*
X68491Y46444D02*
Y48044D01*
X70091D01*
Y46444D01*
X68491D01*
Y56444D02*
Y58044D01*
X70091D01*
Y56444D01*
X68491D01*
Y66444D02*
Y68044D01*
X70091D01*
Y66444D01*
X68491D01*
X47861D02*
Y68044D01*
X49461D01*
Y66444D01*
X47861D01*
Y56444D02*
Y58044D01*
X49461D01*
Y56444D01*
X47861D01*
Y46444D02*
Y48044D01*
X49461D01*
Y46444D01*
X47861D01*
X57861Y66444D02*
Y68044D01*
X59461D01*
Y66444D01*
X57861D01*
Y56444D02*
Y58044D01*
X59461D01*
Y56444D01*
X57861D01*
Y46444D02*
Y48044D01*
X59461D01*
Y46444D01*
X57861D01*
X-51000Y-43300D02*
X-50600Y-42500D01*
X-51000Y-41700D01*
X-50200Y-42100D01*
X-49400Y-41700D01*
X-49800Y-42500D01*
X-49400Y-43300D01*
X-50200Y-42900D01*
X-51000Y-43300D01*
X38800Y35000D02*
X39200Y35800D01*
X38800Y36600D01*
X39600Y36200D01*
X40400Y36600D01*
X40000Y35800D01*
X40400Y35000D01*
X39600Y35400D01*
X38800Y35000D01*
X96838Y31877D02*
X97238Y32677D01*
X96838Y33477D01*
X97638Y33077D01*
X98438Y33477D01*
X98038Y32677D01*
X98438Y31877D01*
X97638Y32277D01*
X96838Y31877D01*
Y92113D02*
X97238Y92913D01*
X96838Y93713D01*
X97638Y93313D01*
X98438Y93713D01*
X98038Y92913D01*
X98438Y92113D01*
X97638Y92513D01*
X96838Y92113D01*
X136208D02*
X136608Y92913D01*
X136208Y93713D01*
X137008Y93313D01*
X137808Y93713D01*
X137408Y92913D01*
X137808Y92113D01*
X137008Y92513D01*
X136208Y92113D01*
Y31877D02*
X136608Y32677D01*
X136208Y33477D01*
X137008Y33077D01*
X137808Y33477D01*
X137408Y32677D01*
X137808Y31877D01*
X137008Y32277D01*
X136208Y31877D01*
X157271Y44869D02*
X157671Y45669D01*
X157271Y46469D01*
X158071Y46069D01*
X158871Y46469D01*
X158471Y45669D01*
X158871Y44869D01*
X158071Y45269D01*
X157271Y44869D01*
Y83452D02*
X157671Y84252D01*
X157271Y85052D01*
X158071Y84652D01*
X158871Y85052D01*
X158471Y84252D01*
X158871Y83452D01*
X158071Y83852D01*
X157271Y83452D01*
Y62192D02*
X157671Y62992D01*
X157271Y63792D01*
X158071Y63392D01*
X158871Y63792D01*
X158471Y62992D01*
X158871Y62192D01*
X158071Y62592D01*
X157271Y62192D01*
Y23609D02*
X157671Y24409D01*
X157271Y25210D01*
X158071Y24810D01*
X158871Y25210D01*
X158471Y24409D01*
X158871Y23609D01*
X158071Y24010D01*
X157271Y23609D01*
X188798Y72907D02*
X189199Y73707D01*
X188798Y74507D01*
X189599Y74107D01*
X190399Y74507D01*
X189998Y73707D01*
X190399Y72907D01*
X189599Y73307D01*
X188798Y72907D01*
X165964Y63852D02*
X166364Y64652D01*
X165964Y65452D01*
X166764Y65052D01*
X167564Y65452D01*
X167164Y64652D01*
X167564Y63852D01*
X166764Y64252D01*
X165964Y63852D01*
Y72907D02*
X166364Y73707D01*
X165964Y74507D01*
X166764Y74107D01*
X167564Y74507D01*
X167164Y73707D01*
X167564Y72907D01*
X166764Y73307D01*
X165964Y72907D01*
X188817Y34206D02*
X189217Y35006D01*
X188817Y35806D01*
X189617Y35406D01*
X190417Y35806D01*
X190017Y35006D01*
X190417Y34206D01*
X189617Y34606D01*
X188817Y34206D01*
X165983D02*
X166383Y35006D01*
X165983Y35806D01*
X166783Y35406D01*
X167583Y35806D01*
X167183Y35006D01*
X167583Y34206D01*
X166783Y34606D01*
X165983Y34206D01*
Y25150D02*
X166383Y25950D01*
X165983Y26750D01*
X166783Y26350D01*
X167583Y26750D01*
X167183Y25950D01*
X167583Y25150D01*
X166783Y25550D01*
X165983Y25150D01*
D11*
X18200Y89300D02*
G03*
X18200Y89300I-800J0D01*
G01*
Y81420D02*
G03*
X18200Y81420I-800J0D01*
G01*
X42220Y89300D02*
G03*
X42220Y89300I-800J0D01*
G01*
Y81420D02*
G03*
X42220Y81420I-800J0D01*
G01*
X26270Y77480D02*
G03*
X26270Y77480I-800J0D01*
G01*
X34150D02*
G03*
X34150Y77480I-800J0D01*
G01*
M02*
