G04 Layer_Physical_Order=1*
G04 Layer_Color=255*
%FSLAX25Y25*%
%MOIN*%
G70*
G01*
G75*
%ADD10R,0.07874X0.07874*%
%ADD11R,0.09449X0.12992*%
%ADD12R,0.09449X0.03937*%
%ADD13R,0.04331X0.06693*%
%ADD14R,0.03150X0.03543*%
%ADD15C,0.03000*%
%ADD16C,0.01500*%
%ADD17C,0.05000*%
%ADD18C,0.04000*%
%ADD19C,0.05905*%
%ADD20R,0.05905X0.05905*%
%ADD21R,0.05905X0.05905*%
%ADD22C,0.05510*%
%ADD23O,0.05910X0.13390*%
%ADD24O,0.14960X0.05910*%
%ADD25C,0.03500*%
%ADD26C,0.02756*%
G36*
X25455Y-18671D02*
X25175Y-18720D01*
X24905Y-18783D01*
X24642Y-18863D01*
X24389Y-18958D01*
X24144Y-19070D01*
X23907Y-19196D01*
X23680Y-19339D01*
X23461Y-19497D01*
X23250Y-19670D01*
X23049Y-19860D01*
X20928Y-17739D01*
X21117Y-17537D01*
X21291Y-17327D01*
X21449Y-17108D01*
X21591Y-16880D01*
X21718Y-16644D01*
X21829Y-16399D01*
X21924Y-16145D01*
X22004Y-15883D01*
X22068Y-15612D01*
X22116Y-15332D01*
X25455Y-18671D01*
D02*
G37*
G36*
X2535Y-15751D02*
X2539Y-15746D01*
X5041Y-18248D01*
X5034Y-18250D01*
X5455Y-18671D01*
X5175Y-18720D01*
X4905Y-18783D01*
X4642Y-18863D01*
X4389Y-18958D01*
X4144Y-19070D01*
X3907Y-19196D01*
X3680Y-19339D01*
X3592Y-19402D01*
X1150Y-21758D01*
X-971Y-19637D01*
X1701Y-16676D01*
X1718Y-16644D01*
X1829Y-16399D01*
X1924Y-16145D01*
X2004Y-15883D01*
X2068Y-15612D01*
X2116Y-15332D01*
X2535Y-15751D01*
D02*
G37*
G36*
X-89154Y-16163D02*
X-89091Y-16434D01*
X-89011Y-16696D01*
X-88916Y-16950D01*
X-88805Y-17195D01*
X-88678Y-17431D01*
X-88535Y-17659D01*
X-88377Y-17878D01*
X-88204Y-18088D01*
X-88014Y-18290D01*
X-90136Y-20411D01*
X-90337Y-20222D01*
X-90547Y-20048D01*
X-90766Y-19890D01*
X-90994Y-19747D01*
X-91230Y-19621D01*
X-91475Y-19510D01*
X-91729Y-19414D01*
X-91991Y-19335D01*
X-92126Y-19303D01*
X-92261Y-19335D01*
X-92523Y-19414D01*
X-92777Y-19510D01*
X-93022Y-19621D01*
X-93258Y-19747D01*
X-93486Y-19890D01*
X-93704Y-20048D01*
X-93915Y-20222D01*
X-94116Y-20411D01*
X-96238Y-18290D01*
X-96048Y-18088D01*
X-95875Y-17878D01*
X-95717Y-17659D01*
X-95574Y-17431D01*
X-95447Y-17195D01*
X-95336Y-16950D01*
X-95241Y-16696D01*
X-95161Y-16434D01*
X-95098Y-16163D01*
X-95049Y-15883D01*
X-92126Y-18807D01*
X-89203Y-15883D01*
X-89154Y-16163D01*
D02*
G37*
G36*
X35455Y-18671D02*
X35175Y-18720D01*
X34905Y-18783D01*
X34642Y-18863D01*
X34389Y-18958D01*
X34144Y-19070D01*
X33907Y-19196D01*
X33680Y-19339D01*
X33461Y-19497D01*
X33250Y-19670D01*
X33049Y-19860D01*
X30928Y-17739D01*
X31117Y-17537D01*
X31291Y-17327D01*
X31449Y-17108D01*
X31591Y-16880D01*
X31718Y-16644D01*
X31829Y-16399D01*
X31924Y-16145D01*
X32004Y-15883D01*
X32068Y-15612D01*
X32116Y-15332D01*
X35455Y-18671D01*
D02*
G37*
G36*
X-87403Y-36400D02*
X-87696Y-36411D01*
X-87970Y-36446D01*
X-88224Y-36503D01*
X-88458Y-36582D01*
X-88672Y-36685D01*
X-88866Y-36810D01*
X-89041Y-36959D01*
X-89196Y-37130D01*
X-89331Y-37323D01*
X-89447Y-37540D01*
X-91154Y-33511D01*
X-87754Y-33400D01*
X-87403Y-36400D01*
D02*
G37*
G36*
X-89929Y-38304D02*
X-90075Y-38541D01*
X-90204Y-38783D01*
X-90316Y-39029D01*
X-90411Y-39281D01*
X-90488Y-39538D01*
X-90548Y-39799D01*
X-90592Y-40066D01*
X-90617Y-40338D01*
X-90626Y-40614D01*
X-93626D01*
X-93635Y-40338D01*
X-93660Y-40066D01*
X-93704Y-39799D01*
X-93764Y-39538D01*
X-93841Y-39281D01*
X-93936Y-39029D01*
X-94048Y-38783D01*
X-94177Y-38541D01*
X-94323Y-38304D01*
X-94487Y-38072D01*
X-89765D01*
X-89929Y-38304D01*
D02*
G37*
G36*
X-89369Y-25176D02*
X-89225Y-25370D01*
X-89063Y-25541D01*
X-88882Y-25689D01*
X-88683Y-25815D01*
X-88465Y-25918D01*
X-88228Y-25997D01*
X-87973Y-26054D01*
X-87700Y-26089D01*
X-87408Y-26100D01*
X-87704Y-29100D01*
X-91088Y-29064D01*
X-89495Y-24959D01*
X-89369Y-25176D01*
D02*
G37*
G36*
X-91710Y-29223D02*
X-91990Y-29271D01*
X-92261Y-29335D01*
X-92523Y-29414D01*
X-92777Y-29510D01*
X-93022Y-29621D01*
X-93258Y-29747D01*
X-93486Y-29890D01*
X-93704Y-30048D01*
X-93915Y-30222D01*
X-94116Y-30411D01*
X-96238Y-28290D01*
X-96048Y-28088D01*
X-95875Y-27878D01*
X-95717Y-27659D01*
X-95574Y-27431D01*
X-95447Y-27195D01*
X-95336Y-26950D01*
X-95241Y-26696D01*
X-95161Y-26434D01*
X-95098Y-26163D01*
X-95049Y-25883D01*
X-91710Y-29223D01*
D02*
G37*
G36*
X-6734Y-18109D02*
X-6966Y-17945D01*
X-7202Y-17799D01*
X-7444Y-17670D01*
X-7691Y-17558D01*
X-7943Y-17463D01*
X-8199Y-17386D01*
X-8461Y-17325D01*
X-8727Y-17282D01*
X-8999Y-17257D01*
X-9276Y-17248D01*
Y-14248D01*
X-8999Y-14239D01*
X-8727Y-14214D01*
X-8461Y-14171D01*
X-8199Y-14110D01*
X-7943Y-14033D01*
X-7691Y-13938D01*
X-7444Y-13826D01*
X-7202Y-13697D01*
X-6966Y-13551D01*
X-6734Y-13387D01*
Y-18109D01*
D02*
G37*
G36*
X49151Y-13758D02*
X48962Y-13959D01*
X48788Y-14169D01*
X48630Y-14388D01*
X48487Y-14616D01*
X48361Y-14852D01*
X48250Y-15097D01*
X48155Y-15351D01*
X48075Y-15613D01*
X48011Y-15884D01*
X47963Y-16164D01*
X44624Y-12825D01*
X44903Y-12776D01*
X45174Y-12712D01*
X45436Y-12633D01*
X45690Y-12538D01*
X45935Y-12427D01*
X46171Y-12300D01*
X46399Y-12157D01*
X46618Y-11999D01*
X46828Y-11826D01*
X47030Y-11636D01*
X49151Y-13758D01*
D02*
G37*
G36*
X39151D02*
X38962Y-13959D01*
X38788Y-14169D01*
X38630Y-14388D01*
X38487Y-14616D01*
X38361Y-14852D01*
X38250Y-15097D01*
X38155Y-15351D01*
X38075Y-15613D01*
X38011Y-15884D01*
X37963Y-16164D01*
X34624Y-12825D01*
X34903Y-12776D01*
X35174Y-12712D01*
X35436Y-12633D01*
X35690Y-12538D01*
X35935Y-12427D01*
X36171Y-12300D01*
X36399Y-12157D01*
X36618Y-11999D01*
X36828Y-11826D01*
X37030Y-11636D01*
X39151Y-13758D01*
D02*
G37*
G36*
X-89356Y-5230D02*
X-89441Y-5505D01*
Y-5824D01*
X-89356Y-6184D01*
X-89186Y-6587D01*
X-88932Y-7033D01*
X-88592Y-7521D01*
X-88168Y-8051D01*
X-87065Y-9239D01*
X-89186Y-11360D01*
X-89801Y-10766D01*
X-90904Y-9833D01*
X-91392Y-9493D01*
X-91838Y-9239D01*
X-92126Y-9118D01*
X-92414Y-9239D01*
X-92860Y-9493D01*
X-93348Y-9833D01*
X-93878Y-10257D01*
X-95066Y-11360D01*
X-97187Y-9239D01*
X-96593Y-8624D01*
X-95660Y-7521D01*
X-95320Y-7033D01*
X-95066Y-6587D01*
X-94896Y-6184D01*
X-94811Y-5824D01*
Y-5505D01*
X-94896Y-5230D01*
X-95066Y-4996D01*
X-92126Y-7936D01*
X-89186Y-4996D01*
X-89356Y-5230D01*
D02*
G37*
G36*
X59151Y-13758D02*
X58962Y-13959D01*
X58788Y-14169D01*
X58630Y-14388D01*
X58487Y-14616D01*
X58361Y-14852D01*
X58250Y-15097D01*
X58154Y-15351D01*
X58075Y-15613D01*
X58011Y-15884D01*
X57963Y-16164D01*
X54624Y-12825D01*
X54903Y-12776D01*
X55174Y-12712D01*
X55436Y-12633D01*
X55690Y-12538D01*
X55935Y-12427D01*
X56171Y-12300D01*
X56399Y-12157D01*
X56618Y-11999D01*
X56828Y-11826D01*
X57030Y-11636D01*
X59151Y-13758D01*
D02*
G37*
G36*
X11050Y-11859D02*
X8378Y-14820D01*
X8361Y-14852D01*
X8250Y-15097D01*
X8155Y-15351D01*
X8075Y-15613D01*
X8011Y-15884D01*
X7963Y-16164D01*
X7544Y-15745D01*
X7539Y-15750D01*
X5038Y-13248D01*
X5045Y-13246D01*
X4624Y-12825D01*
X4903Y-12776D01*
X5174Y-12712D01*
X5436Y-12633D01*
X5690Y-12538D01*
X5935Y-12427D01*
X6171Y-12300D01*
X6399Y-12157D01*
X6487Y-12094D01*
X8929Y-9738D01*
X11050Y-11859D01*
D02*
G37*
G36*
X-849Y-13758D02*
X-1038Y-13959D01*
X-1212Y-14169D01*
X-1370Y-14389D01*
X-1512Y-14616D01*
X-1639Y-14852D01*
X-1750Y-15097D01*
X-1846Y-15351D01*
X-1925Y-15613D01*
X-1989Y-15884D01*
X-2037Y-16164D01*
X-5376Y-12825D01*
X-5097Y-12776D01*
X-4826Y-12712D01*
X-4564Y-12633D01*
X-4310Y-12538D01*
X-4065Y-12427D01*
X-3829Y-12300D01*
X-3601Y-12157D01*
X-3382Y-11999D01*
X-3172Y-11826D01*
X-2970Y-11636D01*
X-849Y-13758D01*
D02*
G37*
G36*
X29151Y-13758D02*
X28962Y-13959D01*
X28788Y-14169D01*
X28630Y-14388D01*
X28488Y-14616D01*
X28361Y-14852D01*
X28250Y-15097D01*
X28155Y-15351D01*
X28075Y-15613D01*
X28011Y-15884D01*
X27963Y-16164D01*
X24624Y-12825D01*
X24903Y-12776D01*
X25174Y-12712D01*
X25436Y-12633D01*
X25690Y-12538D01*
X25935Y-12427D01*
X26171Y-12300D01*
X26399Y-12157D01*
X26618Y-11999D01*
X26828Y-11826D01*
X27030Y-11636D01*
X29151Y-13758D01*
D02*
G37*
G36*
X19151D02*
X18962Y-13959D01*
X18788Y-14169D01*
X18630Y-14388D01*
X18487Y-14616D01*
X18361Y-14852D01*
X18250Y-15097D01*
X18155Y-15351D01*
X18075Y-15613D01*
X18011Y-15884D01*
X17963Y-16164D01*
X14624Y-12825D01*
X14903Y-12776D01*
X15174Y-12712D01*
X15436Y-12633D01*
X15690Y-12538D01*
X15935Y-12427D01*
X16171Y-12300D01*
X16399Y-12157D01*
X16618Y-11999D01*
X16828Y-11826D01*
X17030Y-11636D01*
X19151Y-13758D01*
D02*
G37*
G36*
X-82025Y-79301D02*
X-82305Y-79349D01*
X-82576Y-79413D01*
X-82838Y-79493D01*
X-83092Y-79588D01*
X-83337Y-79699D01*
X-83573Y-79826D01*
X-83801Y-79969D01*
X-84020Y-80127D01*
X-84230Y-80300D01*
X-84431Y-80490D01*
X-86553Y-78369D01*
X-86363Y-78167D01*
X-86190Y-77956D01*
X-86031Y-77737D01*
X-85889Y-77510D01*
X-85762Y-77274D01*
X-85651Y-77029D01*
X-85556Y-76775D01*
X-85476Y-76513D01*
X-85413Y-76242D01*
X-85364Y-75962D01*
X-82025Y-79301D01*
D02*
G37*
G36*
X-62317Y-78139D02*
X-59501Y-77056D01*
X-59756Y-77205D01*
X-59907Y-77415D01*
X-59954Y-77685D01*
X-59897Y-78018D01*
X-59737Y-78412D01*
X-59473Y-78866D01*
X-59105Y-79383D01*
X-58634Y-79960D01*
X-57380Y-81299D01*
X-60422Y-82500D01*
X-61044Y-81895D01*
X-62742Y-80463D01*
X-63252Y-80113D01*
X-63630Y-79889D01*
X-63662Y-79912D01*
X-64193Y-80336D01*
X-65381Y-81439D01*
X-67502Y-79318D01*
X-66908Y-78702D01*
X-65975Y-77599D01*
X-65635Y-77112D01*
X-65381Y-76666D01*
X-65211Y-76263D01*
X-65126Y-75902D01*
Y-75584D01*
X-65211Y-75308D01*
X-65381Y-75075D01*
X-62317Y-78139D01*
D02*
G37*
G36*
X98040Y-74897D02*
X98371Y-76505D01*
X98461Y-76799D01*
X98552Y-77050D01*
X98646Y-77258D01*
X98743Y-77423D01*
X98842Y-77545D01*
X97781Y-78606D01*
X97659Y-78507D01*
X97495Y-78410D01*
X97286Y-78316D01*
X97035Y-78224D01*
X96741Y-78135D01*
X96023Y-77964D01*
X95133Y-77803D01*
X94624Y-77727D01*
X97963Y-74387D01*
X98040Y-74897D01*
D02*
G37*
G36*
X-72025Y-79301D02*
X-72305Y-79349D01*
X-72576Y-79413D01*
X-72838Y-79493D01*
X-73092Y-79588D01*
X-73337Y-79699D01*
X-73573Y-79826D01*
X-73800Y-79969D01*
X-74019Y-80127D01*
X-74230Y-80300D01*
X-74432Y-80490D01*
X-76553Y-78369D01*
X-76363Y-78167D01*
X-76190Y-77956D01*
X-76031Y-77737D01*
X-75889Y-77510D01*
X-75762Y-77274D01*
X-75651Y-77029D01*
X-75556Y-76775D01*
X-75476Y-76513D01*
X-75412Y-76242D01*
X-75364Y-75962D01*
X-72025Y-79301D01*
D02*
G37*
G36*
X37870Y-84531D02*
X37785Y-84806D01*
Y-85124D01*
X37870Y-85485D01*
X38040Y-85888D01*
X38294Y-86334D01*
X38634Y-86822D01*
X39058Y-87352D01*
X40161Y-88540D01*
X38040Y-90661D01*
X37425Y-90067D01*
X36321Y-89134D01*
X35834Y-88794D01*
X35388Y-88540D01*
X35100Y-88418D01*
X34812Y-88540D01*
X34366Y-88794D01*
X33878Y-89134D01*
X33348Y-89558D01*
X32160Y-90661D01*
X30039Y-88540D01*
X30633Y-87925D01*
X31566Y-86822D01*
X31906Y-86334D01*
X32160Y-85888D01*
X32330Y-85485D01*
X32415Y-85124D01*
Y-84806D01*
X32330Y-84531D01*
X32160Y-84297D01*
X35100Y-87237D01*
X38040Y-84297D01*
X37870Y-84531D01*
D02*
G37*
G36*
X165416Y-88523D02*
X165136Y-88572D01*
X164865Y-88635D01*
X164603Y-88715D01*
X164349Y-88810D01*
X164104Y-88921D01*
X163868Y-89048D01*
X163640Y-89191D01*
X163421Y-89349D01*
X163211Y-89522D01*
X163010Y-89712D01*
X160888Y-87590D01*
X161078Y-87389D01*
X161251Y-87179D01*
X161409Y-86960D01*
X161552Y-86732D01*
X161679Y-86496D01*
X161790Y-86251D01*
X161885Y-85997D01*
X161964Y-85735D01*
X162028Y-85464D01*
X162077Y-85184D01*
X165416Y-88523D01*
D02*
G37*
G36*
X-13891Y-81161D02*
X-13866Y-81433D01*
X-13823Y-81700D01*
X-13762Y-81961D01*
X-13685Y-82218D01*
X-13590Y-82470D01*
X-13478Y-82717D01*
X-13349Y-82958D01*
X-13203Y-83195D01*
X-13039Y-83427D01*
X-17761D01*
X-17597Y-83195D01*
X-17451Y-82958D01*
X-17322Y-82717D01*
X-17210Y-82470D01*
X-17115Y-82218D01*
X-17038Y-81961D01*
X-16977Y-81700D01*
X-16934Y-81433D01*
X-16909Y-81161D01*
X-16900Y-80885D01*
X-13900D01*
X-13891Y-81161D01*
D02*
G37*
G36*
X142380Y-81897D02*
X142545Y-81993D01*
X142753Y-82087D01*
X143004Y-82179D01*
X143298Y-82268D01*
X144016Y-82439D01*
X144906Y-82600D01*
X145416Y-82677D01*
X142077Y-86016D01*
X142000Y-85506D01*
X141668Y-83898D01*
X141579Y-83604D01*
X141487Y-83353D01*
X141393Y-83145D01*
X141297Y-82980D01*
X141198Y-82858D01*
X142258Y-81797D01*
X142380Y-81897D01*
D02*
G37*
G36*
X169151Y-72813D02*
X168962Y-73014D01*
X168788Y-73225D01*
X168630Y-73444D01*
X168488Y-73671D01*
X168361Y-73908D01*
X168250Y-74152D01*
X168155Y-74406D01*
X168075Y-74668D01*
X168011Y-74939D01*
X167963Y-75219D01*
X164624Y-71880D01*
X164903Y-71832D01*
X165174Y-71768D01*
X165436Y-71688D01*
X165690Y-71593D01*
X165935Y-71482D01*
X166171Y-71355D01*
X166399Y-71213D01*
X166618Y-71055D01*
X166828Y-70881D01*
X167030Y-70691D01*
X169151Y-72813D01*
D02*
G37*
G36*
X-80243Y-68147D02*
X-80390Y-68384D01*
X-80519Y-68625D01*
X-80631Y-68872D01*
X-80726Y-69124D01*
X-80803Y-69380D01*
X-80863Y-69642D01*
X-80906Y-69909D01*
X-80932Y-70180D01*
X-80941Y-70457D01*
X-83941D01*
X-83950Y-70180D01*
X-83975Y-69909D01*
X-84018Y-69642D01*
X-84079Y-69380D01*
X-84156Y-69124D01*
X-84251Y-68872D01*
X-84363Y-68625D01*
X-84492Y-68384D01*
X-84638Y-68147D01*
X-84802Y-67915D01*
X-80080D01*
X-80243Y-68147D01*
D02*
G37*
G36*
X-90243D02*
X-90390Y-68384D01*
X-90519Y-68625D01*
X-90631Y-68872D01*
X-90726Y-69124D01*
X-90803Y-69380D01*
X-90863Y-69642D01*
X-90907Y-69909D01*
X-90932Y-70180D01*
X-90941Y-70457D01*
X-93941D01*
X-93950Y-70180D01*
X-93975Y-69909D01*
X-94018Y-69642D01*
X-94079Y-69380D01*
X-94156Y-69124D01*
X-94251Y-68872D01*
X-94363Y-68625D01*
X-94492Y-68384D01*
X-94638Y-68147D01*
X-94802Y-67915D01*
X-90080D01*
X-90243Y-68147D01*
D02*
G37*
G36*
X-90626Y-62041D02*
X-90619Y-62332D01*
X-90567Y-62885D01*
X-90521Y-63148D01*
X-90461Y-63402D01*
X-90389Y-63646D01*
X-90303Y-63881D01*
X-90204Y-64107D01*
X-90092Y-64323D01*
X-89967Y-64530D01*
X-94601Y-64128D01*
X-94415Y-63915D01*
X-94250Y-63695D01*
X-94104Y-63468D01*
X-93977Y-63232D01*
X-93870Y-62990D01*
X-93782Y-62740D01*
X-93714Y-62482D01*
X-93665Y-62218D01*
X-93636Y-61945D01*
X-93626Y-61665D01*
X-90626Y-62041D01*
D02*
G37*
G36*
X-70243Y-68147D02*
X-70390Y-68384D01*
X-70519Y-68625D01*
X-70631Y-68872D01*
X-70726Y-69124D01*
X-70803Y-69380D01*
X-70863Y-69642D01*
X-70907Y-69909D01*
X-70932Y-70180D01*
X-70941Y-70457D01*
X-73941D01*
X-73949Y-70180D01*
X-73975Y-69909D01*
X-74018Y-69642D01*
X-74079Y-69380D01*
X-74156Y-69124D01*
X-74251Y-68872D01*
X-74363Y-68625D01*
X-74492Y-68384D01*
X-74638Y-68147D01*
X-74802Y-67915D01*
X-70080D01*
X-70243Y-68147D01*
D02*
G37*
G36*
X-80932Y-72339D02*
X-80906Y-72611D01*
X-80863Y-72878D01*
X-80803Y-73139D01*
X-80726Y-73396D01*
X-80631Y-73648D01*
X-80519Y-73895D01*
X-80390Y-74136D01*
X-80243Y-74373D01*
X-80080Y-74605D01*
X-84802D01*
X-84638Y-74373D01*
X-84492Y-74136D01*
X-84363Y-73895D01*
X-84251Y-73648D01*
X-84156Y-73396D01*
X-84079Y-73139D01*
X-84018Y-72878D01*
X-83975Y-72611D01*
X-83950Y-72339D01*
X-83941Y-72063D01*
X-80941D01*
X-80932Y-72339D01*
D02*
G37*
G36*
X-90932D02*
X-90907Y-72611D01*
X-90863Y-72878D01*
X-90803Y-73139D01*
X-90726Y-73396D01*
X-90631Y-73648D01*
X-90519Y-73895D01*
X-90390Y-74136D01*
X-90243Y-74373D01*
X-90080Y-74605D01*
X-94802D01*
X-94638Y-74373D01*
X-94492Y-74136D01*
X-94363Y-73895D01*
X-94251Y-73648D01*
X-94156Y-73396D01*
X-94079Y-73139D01*
X-94018Y-72878D01*
X-93975Y-72611D01*
X-93950Y-72339D01*
X-93941Y-72063D01*
X-90941D01*
X-90932Y-72339D01*
D02*
G37*
G36*
X-59775Y-69112D02*
X-60019Y-69201D01*
X-60236Y-69352D01*
X-60423Y-69561D01*
X-60581Y-69832D01*
X-60711Y-70161D01*
X-60811Y-70552D01*
X-60883Y-71001D01*
X-60905Y-71260D01*
X-60883Y-71518D01*
X-60811Y-71968D01*
X-60711Y-72358D01*
X-60581Y-72688D01*
X-60423Y-72958D01*
X-60236Y-73168D01*
X-60019Y-73318D01*
X-59775Y-73408D01*
X-59501Y-73438D01*
X-65381D01*
X-65107Y-73408D01*
X-64862Y-73318D01*
X-64646Y-73168D01*
X-64459Y-72958D01*
X-64301Y-72688D01*
X-64171Y-72358D01*
X-64070Y-71968D01*
X-63999Y-71518D01*
X-63977Y-71260D01*
X-63999Y-71001D01*
X-64070Y-70552D01*
X-64171Y-70161D01*
X-64301Y-69832D01*
X-64459Y-69561D01*
X-64646Y-69352D01*
X-64862Y-69201D01*
X-65107Y-69112D01*
X-65381Y-69081D01*
X-59501D01*
X-59775Y-69112D01*
D02*
G37*
G36*
X-70932Y-72339D02*
X-70907Y-72611D01*
X-70863Y-72878D01*
X-70803Y-73139D01*
X-70726Y-73396D01*
X-70631Y-73648D01*
X-70519Y-73895D01*
X-70390Y-74136D01*
X-70243Y-74373D01*
X-70080Y-74605D01*
X-74802D01*
X-74638Y-74373D01*
X-74492Y-74136D01*
X-74363Y-73895D01*
X-74251Y-73648D01*
X-74156Y-73396D01*
X-74079Y-73139D01*
X-74018Y-72878D01*
X-73975Y-72611D01*
X-73949Y-72339D01*
X-73941Y-72063D01*
X-70941D01*
X-70932Y-72339D01*
D02*
G37*
G36*
X25763Y7477D02*
X25768Y7482D01*
X28269Y4980D01*
X28262Y4978D01*
X28684Y4557D01*
X28404Y4509D01*
X28133Y4445D01*
X27871Y4365D01*
X27617Y4270D01*
X27372Y4159D01*
X27136Y4032D01*
X26908Y3890D01*
X26820Y3826D01*
X24379Y1470D01*
X22257Y3591D01*
X24929Y6552D01*
X24946Y6585D01*
X25057Y6830D01*
X25153Y7083D01*
X25232Y7345D01*
X25296Y7616D01*
X25344Y7896D01*
X25763Y7477D01*
D02*
G37*
G36*
X171376Y62675D02*
X171332Y62612D01*
X171342Y62506D01*
X171408Y62357D01*
X171529Y62166D01*
X171706Y61933D01*
X172224Y61339D01*
X172962Y60575D01*
X168719D01*
X168295Y60978D01*
X167871Y61339D01*
X167446Y61657D01*
X167022Y61933D01*
X166598Y62166D01*
X166174Y62357D01*
X165749Y62506D01*
X165325Y62612D01*
X164901Y62675D01*
X164477Y62696D01*
X171475D01*
X171376Y62675D01*
D02*
G37*
G36*
X46417Y73048D02*
X47736Y71916D01*
X48359Y71457D01*
X48959Y71068D01*
X49535Y70749D01*
X50087Y70502D01*
X50616Y70325D01*
X51121Y70219D01*
X51601Y70184D01*
X45722Y64304D01*
X51601D01*
X51518Y64254D01*
X51443Y64104D01*
X51377Y63854D01*
X51320Y63504D01*
X51271Y63054D01*
X51179Y61104D01*
X51161Y59304D01*
X46161D01*
X46157Y60254D01*
X45946Y63854D01*
X45880Y64104D01*
X45805Y64254D01*
X45722Y64304D01*
X45686Y64785D01*
X45580Y65290D01*
X45404Y65818D01*
X45156Y66370D01*
X44838Y66946D01*
X44449Y67546D01*
X43989Y68170D01*
X42858Y69489D01*
X42186Y70184D01*
X45722Y73719D01*
X46417Y73048D01*
D02*
G37*
G36*
X19935Y79526D02*
X20041Y78782D01*
X20218Y78209D01*
X20465Y77807D01*
X20783Y77575D01*
X21172Y77514D01*
X21631Y77624D01*
X22161Y77905D01*
X22762Y78356D01*
X23433Y78979D01*
X17400Y69400D01*
X11365Y66900D01*
X12036Y67622D01*
X12637Y68373D01*
X13168Y69153D01*
X13627Y69963D01*
X14016Y70802D01*
X14334Y71670D01*
X14582Y72567D01*
X14759Y73494D01*
X14865Y74450D01*
X14900Y75436D01*
X19900Y80441D01*
X19935Y79526D01*
D02*
G37*
G36*
X162052Y66164D02*
X163223Y66152D01*
Y63152D01*
X162652Y63137D01*
X162140Y63092D01*
X162052Y63077D01*
Y62696D01*
X162029Y62783D01*
X161959Y62860D01*
X161843Y62929D01*
X161681Y62988D01*
X161628Y63001D01*
X161297Y62912D01*
X160966Y62777D01*
X160695Y62612D01*
X160484Y62417D01*
X160333Y62192D01*
X160242Y61937D01*
X160211Y61652D01*
X160215Y63145D01*
X160172Y63147D01*
X159731Y63152D01*
Y66152D01*
X160172Y66157D01*
X160223Y66160D01*
X160223Y66326D01*
X160253Y66293D01*
X160343Y66263D01*
X160493Y66237D01*
X160703Y66215D01*
X160909Y66205D01*
X161216Y66225D01*
X161472Y66266D01*
X161681Y66316D01*
X161843Y66375D01*
X161959Y66444D01*
X162029Y66521D01*
X162052Y66607D01*
Y66164D01*
D02*
G37*
G36*
X148948Y51433D02*
X149045Y50083D01*
X149104Y49753D01*
X149135Y49636D01*
X149490Y49924D01*
X150774Y51124D01*
X151715Y47822D01*
X151172Y47258D01*
X150307Y46224D01*
X149984Y45754D01*
X149734Y45314D01*
X149558Y44905D01*
X149454Y44528D01*
X149423Y44180D01*
X149466Y43864D01*
X149581Y43579D01*
X146532Y48991D01*
X146711Y48769D01*
X146945Y48644D01*
X147233Y48616D01*
X147575Y48684D01*
X147973Y48849D01*
X148237Y49003D01*
X145289D01*
X145413Y49033D01*
X145523Y49123D01*
X145621Y49273D01*
X145706Y49483D01*
X145778Y49753D01*
X145837Y50083D01*
X145882Y50473D01*
X145934Y51433D01*
X145941Y52003D01*
X148941D01*
X148948Y51433D01*
D02*
G37*
G36*
X-269Y48195D02*
X-3960Y44146D01*
X-10836Y48223D01*
X-10367Y48023D01*
X-9845Y47945D01*
X-9270Y47992D01*
X-8643Y48161D01*
X-7962Y48454D01*
X-7228Y48871D01*
X-6442Y49411D01*
X-5602Y50074D01*
X-4710Y50861D01*
X-3765Y51771D01*
X-269Y48195D01*
D02*
G37*
G36*
X149469Y59629D02*
X149358Y59539D01*
X149261Y59389D01*
X149176Y59179D01*
X149104Y58909D01*
X149045Y58579D01*
X149000Y58189D01*
X148948Y57229D01*
X148941Y56659D01*
X145941D01*
X145934Y57229D01*
X145837Y58579D01*
X145778Y58909D01*
X145706Y59179D01*
X145621Y59389D01*
X145523Y59539D01*
X145413Y59629D01*
X145289Y59659D01*
X149593D01*
X149469Y59629D01*
D02*
G37*
G36*
X84535Y56687D02*
X82842Y54137D01*
X82622Y54341D01*
X82405Y54512D01*
X82190Y54650D01*
X81978Y54754D01*
X81768Y54825D01*
X81561Y54863D01*
X81356Y54867D01*
X81154Y54838D01*
X80954Y54776D01*
X80757Y54681D01*
X81801Y58800D01*
X84535Y56687D01*
D02*
G37*
G36*
X184899Y70707D02*
X184869Y70992D01*
X184779Y71247D01*
X184628Y71472D01*
X184417Y71667D01*
X184146Y71832D01*
X183815Y71967D01*
X183423Y72072D01*
X182971Y72147D01*
X182459Y72192D01*
X181887Y72207D01*
Y75207D01*
X182459Y75222D01*
X182971Y75267D01*
X183423Y75342D01*
X183815Y75447D01*
X184146Y75582D01*
X184417Y75747D01*
X184628Y75942D01*
X184779Y76167D01*
X184869Y76422D01*
X184899Y76707D01*
Y70707D01*
D02*
G37*
G36*
X168279Y87145D02*
X168324Y86633D01*
X168399Y86182D01*
X168504Y85790D01*
X168639Y85459D01*
X168804Y85188D01*
X168999Y84977D01*
X169224Y84826D01*
X169479Y84736D01*
X169764Y84706D01*
X163764D01*
X164049Y84736D01*
X164304Y84826D01*
X164529Y84977D01*
X164724Y85188D01*
X164889Y85459D01*
X165024Y85790D01*
X165129Y86182D01*
X165204Y86633D01*
X165249Y87145D01*
X165264Y87718D01*
X168264D01*
X168279Y87145D01*
D02*
G37*
G36*
X140661Y88939D02*
X140419Y88789D01*
X140206Y88539D01*
X140021Y88189D01*
X139864Y87739D01*
X139736Y87189D01*
X139636Y86539D01*
X139565Y85789D01*
X139508Y83989D01*
X134508D01*
X134494Y84939D01*
X134380Y86539D01*
X134280Y87189D01*
X134152Y87739D01*
X133995Y88189D01*
X133810Y88539D01*
X133597Y88789D01*
X133354Y88939D01*
X133084Y88989D01*
X140932D01*
X140661Y88939D01*
D02*
G37*
G36*
X140950Y95628D02*
X141040Y95373D01*
X141191Y95148D01*
X141402Y94953D01*
X141673Y94788D01*
X142004Y94653D01*
X142396Y94548D01*
X142848Y94473D01*
X143360Y94428D01*
X143773Y94418D01*
X144008Y94413D01*
Y91413D01*
X142858Y91354D01*
X142848Y91353D01*
X142396Y91278D01*
X142004Y91173D01*
X141673Y91038D01*
X141402Y90873D01*
X141191Y90678D01*
X141040Y90453D01*
X140950Y90198D01*
X140920Y89913D01*
Y91255D01*
X138775Y91145D01*
Y94682D01*
X138875Y94631D01*
X139070Y94586D01*
X139359Y94545D01*
X140217Y94481D01*
X140920Y94468D01*
Y95913D01*
X140950Y95628D01*
D02*
G37*
G36*
X100785Y88989D02*
X100396Y89272D01*
X99936Y89414D01*
X99406D01*
X98805Y89272D01*
X98133Y88989D01*
X97391Y88565D01*
X96578Y87999D01*
X95694Y87292D01*
X93714Y85454D01*
X90178Y88989D01*
X91168Y90015D01*
X92724Y91853D01*
X93290Y92666D01*
X93714Y93409D01*
X93997Y94081D01*
X94138Y94682D01*
Y95212D01*
X93997Y95671D01*
X93714Y96060D01*
X100785Y88989D01*
D02*
G37*
G36*
X171505Y75576D02*
X171595Y75499D01*
X171745Y75430D01*
X171955Y75371D01*
X172225Y75321D01*
X172555Y75280D01*
X173395Y75225D01*
X174475Y75207D01*
Y72207D01*
X173905Y72203D01*
X172225Y72093D01*
X171955Y72043D01*
X171745Y71984D01*
X171595Y71916D01*
X171505Y71838D01*
X171475Y71752D01*
Y75663D01*
X171505Y75576D01*
D02*
G37*
G36*
X162052Y71752D02*
X162022Y71838D01*
X161932Y71916D01*
X161782Y71984D01*
X161572Y72043D01*
X161302Y72093D01*
X160972Y72134D01*
X160132Y72189D01*
X159052Y72207D01*
Y75207D01*
X159622Y75212D01*
X161302Y75321D01*
X161572Y75371D01*
X161782Y75430D01*
X161932Y75499D01*
X162022Y75576D01*
X162052Y75663D01*
Y71752D01*
D02*
G37*
G36*
X157095Y78675D02*
X157159Y78408D01*
X157265Y78122D01*
X157413Y77817D01*
X157604Y77494D01*
X157837Y77153D01*
X158113Y76793D01*
X158792Y76019D01*
X159195Y75604D01*
X157271Y73285D01*
X156855Y73688D01*
X155721Y74643D01*
X155380Y74876D01*
X155057Y75067D01*
X154753Y75216D01*
X154467Y75322D01*
X154199Y75385D01*
X153950Y75407D01*
X157074Y78924D01*
X157095Y78675D01*
D02*
G37*
G36*
X151550Y75377D02*
X151540Y75287D01*
X151530Y75137D01*
X151517Y73987D01*
X151562Y71837D01*
X148438D01*
X148450Y71867D01*
X148460Y71957D01*
X148470Y72107D01*
X148483Y73257D01*
X148438Y75407D01*
X151562D01*
X151550Y75377D01*
D02*
G37*
G36*
X138070Y10166D02*
X138160Y9922D01*
X138310Y9706D01*
X138520Y9518D01*
X138790Y9360D01*
X139120Y9230D01*
X139510Y9130D01*
X139960Y9058D01*
X140470Y9014D01*
X141040Y9000D01*
Y6000D01*
X140470Y5986D01*
X139960Y5942D01*
X139510Y5870D01*
X139120Y5770D01*
X138790Y5640D01*
X138520Y5482D01*
X138310Y5294D01*
X138160Y5079D01*
X138070Y4834D01*
X138040Y4560D01*
Y10440D01*
X138070Y10166D01*
D02*
G37*
G36*
X78750Y4263D02*
X78487Y4299D01*
X78229Y4310D01*
X77978Y4296D01*
X77732Y4255D01*
X77492Y4189D01*
X77258Y4096D01*
X77029Y3979D01*
X76807Y3835D01*
X76590Y3666D01*
X76379Y3470D01*
X75140Y6474D01*
X75368Y6706D01*
X76207Y7656D01*
X76314Y7804D01*
X76467Y8058D01*
X76513Y8164D01*
X78750Y4263D01*
D02*
G37*
G36*
X159622Y25940D02*
X160218Y25344D01*
X160223Y27743D01*
X164223Y27950D01*
Y23950D01*
X163462Y23930D01*
X162780Y23870D01*
X162179Y23770D01*
X161658Y23630D01*
X161216Y23450D01*
X160855Y23230D01*
X160574Y22970D01*
X160373Y22670D01*
X160252Y22330D01*
X160211Y21950D01*
X160216Y24422D01*
X160066Y24267D01*
X158667Y25666D01*
X158043D01*
X159754Y23955D01*
X159745Y23949D01*
X159724Y23931D01*
X159442Y23658D01*
X159132Y23349D01*
X157010Y25470D01*
X157201Y25666D01*
X156515D01*
X156526Y25711D01*
X156535Y25819D01*
X156557Y26518D01*
X156571Y28937D01*
X159571D01*
X159622Y25940D01*
D02*
G37*
G36*
X31124Y14491D02*
X31049Y14341D01*
X30983Y14090D01*
X30926Y13740D01*
X30878Y13291D01*
X30785Y11341D01*
X30768Y9541D01*
X25768D01*
X25763Y10491D01*
X25552Y14090D01*
X25486Y14341D01*
X25411Y14491D01*
X25328Y14540D01*
X31207D01*
X31124Y14491D01*
D02*
G37*
G36*
X58577Y4214D02*
X58298Y4211D01*
X58027Y4188D01*
X57765Y4143D01*
X57510Y4078D01*
X57263Y3991D01*
X57025Y3883D01*
X56794Y3754D01*
X56571Y3604D01*
X56357Y3433D01*
X56150Y3241D01*
X54458Y5792D01*
X54667Y6008D01*
X55034Y6436D01*
X55193Y6648D01*
X55461Y7068D01*
X55571Y7275D01*
X55663Y7481D01*
X55739Y7686D01*
X55799Y7890D01*
X58577Y4214D01*
D02*
G37*
G36*
X48577D02*
X48298Y4211D01*
X48027Y4188D01*
X47765Y4143D01*
X47510Y4078D01*
X47263Y3991D01*
X47025Y3883D01*
X46794Y3754D01*
X46571Y3604D01*
X46357Y3433D01*
X46150Y3241D01*
X44458Y5792D01*
X44667Y6008D01*
X45034Y6436D01*
X45193Y6648D01*
X45461Y7068D01*
X45571Y7275D01*
X45663Y7481D01*
X45739Y7686D01*
X45799Y7890D01*
X48577Y4214D01*
D02*
G37*
G36*
X68750Y4263D02*
X68487Y4299D01*
X68229Y4310D01*
X67978Y4296D01*
X67732Y4255D01*
X67492Y4189D01*
X67258Y4096D01*
X67029Y3979D01*
X66807Y3835D01*
X66590Y3666D01*
X66379Y3470D01*
X65140Y6474D01*
X65368Y6706D01*
X66207Y7656D01*
X66314Y7804D01*
X66467Y8058D01*
X66513Y8164D01*
X68750Y4263D01*
D02*
G37*
G36*
X18684Y4557D02*
X18404Y4509D01*
X18133Y4445D01*
X17871Y4365D01*
X17617Y4270D01*
X17372Y4159D01*
X17136Y4032D01*
X16908Y3890D01*
X16689Y3732D01*
X16479Y3558D01*
X16277Y3368D01*
X14156Y5490D01*
X14345Y5691D01*
X14519Y5902D01*
X14677Y6121D01*
X14820Y6348D01*
X14946Y6585D01*
X15057Y6830D01*
X15153Y7083D01*
X15232Y7345D01*
X15296Y7616D01*
X15344Y7896D01*
X18684Y4557D01*
D02*
G37*
G36*
X101336Y34099D02*
X101222Y33731D01*
Y33307D01*
X101336Y32826D01*
X101562Y32289D01*
X101901Y31695D01*
X102354Y31044D01*
X102919Y30337D01*
X104390Y28753D01*
X101562Y25925D01*
X100742Y26717D01*
X99648Y27642D01*
X98676Y26844D01*
X97051Y25359D01*
X95096Y23450D01*
X90178Y25604D01*
X91274Y26735D01*
X92971Y28715D01*
X93573Y29564D01*
X94009Y30318D01*
X94280Y30978D01*
X94386Y31543D01*
X94327Y32015D01*
X94103Y32392D01*
X93714Y32675D01*
X97790Y30638D01*
X101562Y34410D01*
X101336Y34099D01*
D02*
G37*
G36*
X157095Y40092D02*
X157159Y39825D01*
X157265Y39539D01*
X157413Y39235D01*
X157604Y38912D01*
X157837Y38570D01*
X158113Y38211D01*
X158792Y37436D01*
X159195Y37021D01*
X157271Y34703D01*
X156855Y35106D01*
X155721Y36060D01*
X155380Y36294D01*
X155057Y36485D01*
X154753Y36633D01*
X154467Y36739D01*
X154199Y36803D01*
X153950Y36824D01*
X157074Y40341D01*
X157095Y40092D01*
D02*
G37*
G36*
X151550Y36794D02*
X151540Y36704D01*
X151530Y36554D01*
X151517Y35404D01*
X151562Y33255D01*
X148438D01*
X148450Y33285D01*
X148460Y33375D01*
X148470Y33525D01*
X148483Y34675D01*
X148438Y36824D01*
X151562D01*
X151550Y36794D01*
D02*
G37*
G36*
X168298Y48444D02*
X168343Y47932D01*
X168418Y47480D01*
X168523Y47088D01*
X168658Y46757D01*
X168823Y46486D01*
X169018Y46275D01*
X169243Y46125D01*
X169498Y46034D01*
X169783Y46004D01*
X163783D01*
X164068Y46034D01*
X164323Y46125D01*
X164548Y46275D01*
X164743Y46486D01*
X164908Y46757D01*
X165043Y47088D01*
X165148Y47480D01*
X165223Y47932D01*
X165268Y48444D01*
X165283Y49016D01*
X168283D01*
X168298Y48444D01*
D02*
G37*
G36*
X139522Y40651D02*
X139636Y39051D01*
X139736Y38401D01*
X139864Y37851D01*
X140021Y37401D01*
X140206Y37051D01*
X140419Y36801D01*
X140661Y36651D01*
X140932Y36601D01*
X133084D01*
X133354Y36651D01*
X133597Y36801D01*
X133810Y37051D01*
X133995Y37401D01*
X134152Y37851D01*
X134280Y38401D01*
X134380Y39051D01*
X134451Y39801D01*
X134508Y41601D01*
X139508D01*
X139522Y40651D01*
D02*
G37*
G36*
X140762Y32763D02*
X140677Y32487D01*
Y32168D01*
X140762Y31808D01*
X140932Y31405D01*
X141186Y30959D01*
X141526Y30471D01*
X141950Y29941D01*
X143053Y28753D01*
X140932Y26632D01*
X140878Y26684D01*
X139684Y27761D01*
X139214Y28159D01*
X138726Y28499D01*
X138280Y28753D01*
X137877Y28923D01*
X137517Y29008D01*
X137198D01*
X136923Y28923D01*
X136689Y28753D01*
X137588Y29652D01*
X137006Y30177D01*
X139508Y32679D01*
X139543Y32571D01*
X139648Y32401D01*
X139824Y32169D01*
X139954Y32018D01*
X140932Y32996D01*
X140762Y32763D01*
D02*
G37*
G36*
X184918Y32006D02*
X184888Y32291D01*
X184798Y32546D01*
X184647Y32771D01*
X184436Y32966D01*
X184165Y33131D01*
X183834Y33266D01*
X183442Y33371D01*
X182990Y33446D01*
X182478Y33491D01*
X181906Y33506D01*
Y36506D01*
X182478Y36521D01*
X182990Y36566D01*
X183442Y36641D01*
X183834Y36746D01*
X184165Y36881D01*
X184436Y37046D01*
X184647Y37241D01*
X184798Y37466D01*
X184888Y37721D01*
X184918Y38006D01*
Y32006D01*
D02*
G37*
G36*
X171524Y36874D02*
X171614Y36797D01*
X171764Y36729D01*
X171974Y36670D01*
X172244Y36619D01*
X172574Y36579D01*
X173414Y36524D01*
X174494Y36506D01*
Y33506D01*
X173924Y33501D01*
X172244Y33392D01*
X171974Y33342D01*
X171764Y33282D01*
X171614Y33214D01*
X171524Y33137D01*
X171494Y33050D01*
Y36961D01*
X171524Y36874D01*
D02*
G37*
G36*
X162071Y33050D02*
X162041Y33137D01*
X161952Y33214D01*
X161803Y33282D01*
X161594Y33342D01*
X161326Y33392D01*
X160998Y33433D01*
X160162Y33487D01*
X159089Y33506D01*
Y36506D01*
X159656Y36510D01*
X161326Y36619D01*
X161594Y36670D01*
X161803Y36729D01*
X161952Y36797D01*
X162041Y36874D01*
X162071Y36961D01*
Y33050D01*
D02*
G37*
D10*
X137008Y92913D02*
D03*
Y32677D02*
D03*
X97638D02*
D03*
Y92913D02*
D03*
D11*
X189599Y73707D02*
D03*
X189617Y35006D02*
D03*
D12*
X166764Y64652D02*
D03*
Y73707D02*
D03*
Y82762D02*
D03*
X166783Y25950D02*
D03*
Y35006D02*
D03*
Y44061D02*
D03*
D13*
X158071Y84252D02*
D03*
X147441D02*
D03*
X158071Y62992D02*
D03*
X147441D02*
D03*
X158071Y45669D02*
D03*
X147441D02*
D03*
X158071Y24409D02*
D03*
X147441D02*
D03*
D14*
X150000Y77165D02*
D03*
X155512D02*
D03*
X150000Y70079D02*
D03*
X155512D02*
D03*
X150000Y38583D02*
D03*
X155512D02*
D03*
X150000Y31496D02*
D03*
X155512D02*
D03*
D15*
X-107000Y-74800D02*
Y-41173D01*
Y-74800D02*
X-98600Y-83200D01*
X-107000Y-41173D02*
X-92126Y-26299D01*
X38900Y35000D02*
X40600Y36700D01*
X166764Y64652D02*
X189617Y41798D01*
Y35006D02*
Y41798D01*
X-50200Y-42500D02*
X-15400Y-77300D01*
Y-85200D02*
Y-77300D01*
X40600Y36700D02*
X82500D01*
X38900Y8113D02*
Y35000D01*
X81856Y57244D02*
X86700Y52400D01*
Y40900D02*
Y52400D01*
X82500Y36700D02*
X86700Y40900D01*
X79291Y57244D02*
X81856D01*
X15039Y-15748D02*
X38900Y8113D01*
X135100Y7500D02*
X177100D01*
X192800Y-8200D01*
Y-47043D02*
Y-8200D01*
X165039Y-74803D02*
X192800Y-47043D01*
X158100Y-92500D02*
X165000Y-85600D01*
X42000Y-92500D02*
X158100D01*
X35100Y-85600D02*
X42000Y-92500D01*
X28800Y-91900D02*
X35100Y-85600D01*
X-48900Y-91900D02*
X28800D01*
X-62441Y-78359D02*
X-48900Y-91900D01*
X-62441Y-78359D02*
Y-76378D01*
X-118100Y-32273D02*
X-92126Y-6299D01*
X-118100Y-80900D02*
Y-32273D01*
Y-80900D02*
X-105000Y-94000D01*
X-112600Y-36773D02*
X-92126Y-16299D01*
X-112600Y-77600D02*
Y-36773D01*
Y-77600D02*
X-101700Y-88500D01*
X-105000Y-94000D02*
X-80063D01*
X-101700Y-88500D02*
X-84563D01*
X-98600Y-83200D02*
X-89263D01*
X-80063Y-94000D02*
X-62441Y-76378D01*
X-84563Y-88500D02*
X-72441Y-76378D01*
X-89263Y-83200D02*
X-82441Y-76378D01*
X15887Y-34900D02*
X35039Y-15748D01*
X-90727Y-34900D02*
X15887D01*
X-92126Y-36299D02*
X-90727Y-34900D01*
X13187Y-27600D02*
X25039Y-15748D01*
X-90825Y-27600D02*
X13187D01*
X-92126Y-26299D02*
X-90825Y-27600D01*
X-1213Y-22000D02*
X5039Y-15748D01*
X-86425Y-22000D02*
X-1213D01*
X-92126Y-16299D02*
X-86425Y-22000D01*
X-92126Y-6299D02*
X-82677Y-15748D01*
X-4961D01*
X137008Y32677D02*
X145276Y24409D01*
X147441D01*
Y45669D02*
Y62992D01*
X166783Y35006D02*
X189617D01*
X166783Y44061D02*
Y49359D01*
X163386Y52756D02*
X166783Y49359D01*
X154528Y52756D02*
X163386D01*
X147441Y45669D02*
X154528Y52756D01*
X159089Y35006D02*
X166783D01*
X155512Y38583D02*
X159089Y35006D01*
X155512Y31496D02*
X158071Y28937D01*
Y24409D02*
Y28937D01*
Y24409D02*
X159612Y25950D01*
X147441Y24409D02*
Y28937D01*
X150000Y31496D01*
Y38583D01*
X147441Y41142D02*
Y45669D01*
Y41142D02*
X150000Y38583D01*
X158071Y41142D02*
Y45669D01*
X155512Y38583D02*
X158071Y41142D01*
X137008Y92913D02*
X163386D01*
X166764Y89535D01*
Y82762D02*
Y89535D01*
Y73707D02*
X189599D01*
X158970D02*
X166764D01*
X155512Y77165D02*
X158970Y73707D01*
X150000Y70079D02*
Y77165D01*
X147441Y79724D02*
Y84252D01*
Y79724D02*
X150000Y77165D01*
X158071Y79724D02*
Y84252D01*
X155512Y77165D02*
X158071Y79724D01*
X147441Y62992D02*
Y67520D01*
X150000Y70079D01*
X158071Y62992D02*
Y67520D01*
X155512Y70079D02*
X158071Y67520D01*
Y62992D02*
X159731Y64652D01*
X166764D01*
X-4961Y-15748D02*
X-4961D01*
X18268Y7480D01*
X5039Y-15748D02*
X28268Y7480D01*
X55039Y-15748D02*
X77953Y7165D01*
X79291D01*
X67953D02*
X69291D01*
X45039Y-15748D02*
X67953Y7165D01*
X25039Y-15748D02*
X47953Y7165D01*
X48661D01*
X35039Y-15748D02*
X57953Y7165D01*
X58661D01*
X-92441Y-66142D02*
X-92126Y-65827D01*
Y-36299D01*
X-92441Y-76378D02*
Y-66142D01*
X-82441Y-76378D02*
Y-66142D01*
X-62441Y-76378D02*
Y-66142D01*
X-72441Y-76378D02*
Y-66142D01*
D16*
X95039Y-74803D02*
X100636Y-80400D01*
X139800D01*
X145000Y-85600D01*
D17*
X137008Y32677D02*
Y92913D01*
X86144Y81420D02*
X97638Y92913D01*
Y29528D02*
Y32677D01*
X85276Y17165D02*
X97638Y29528D01*
X79291Y17165D02*
X85276D01*
X-1732Y7480D02*
Y17480D01*
X8268Y7480D02*
Y17480D01*
X28268Y7480D02*
Y17480D01*
X5039Y-15748D02*
X5039D01*
X95039D02*
X95100Y-15687D01*
Y7500D01*
X105039Y-15748D02*
X105100Y-15687D01*
Y7500D01*
X115039Y-15748D02*
X115100Y-15687D01*
Y7500D01*
X48661Y17165D02*
X58661D01*
X69291D01*
X79291D01*
X32444Y47244D02*
X48661D01*
X18268Y33068D02*
X32444Y47244D01*
X18268Y17480D02*
Y33068D01*
X48661Y47244D02*
Y57244D01*
Y67244D01*
X41420Y81420D02*
X86144D01*
X41420Y74485D02*
X41590Y74315D01*
X41420Y74485D02*
Y81420D01*
X33350Y77480D02*
X36515Y74315D01*
X41590D01*
X48661Y67244D01*
X17400Y69400D02*
X25470Y77480D01*
X17400Y69400D02*
Y81420D01*
X-6722Y45278D02*
X17400Y69400D01*
X-11218Y45278D02*
X-6722D01*
D18*
X155118Y16929D02*
X158071Y19882D01*
X113386Y16929D02*
X155118D01*
X97638Y32677D02*
X113386Y16929D01*
X158071Y19882D02*
Y24409D01*
X159612Y25950D02*
X166783D01*
D19*
X-92126Y-36299D02*
D03*
Y-26299D02*
D03*
Y-16299D02*
D03*
X-92441Y-76378D02*
D03*
X-82441D02*
D03*
X-72441D02*
D03*
X-45400Y-85200D02*
D03*
X-35400D02*
D03*
X-25400D02*
D03*
X-15400D02*
D03*
X-51181Y26614D02*
D03*
Y36614D02*
D03*
Y46614D02*
D03*
Y56614D02*
D03*
Y66614D02*
D03*
Y76614D02*
D03*
Y86614D02*
D03*
X-162700Y-5500D02*
D03*
X-152700D02*
D03*
X-142700D02*
D03*
X-1732Y7480D02*
D03*
Y17480D02*
D03*
X8268Y7480D02*
D03*
Y17480D02*
D03*
X18268Y7480D02*
D03*
Y17480D02*
D03*
X28268Y7480D02*
D03*
X175039Y-74803D02*
D03*
X165039D02*
D03*
X155039D02*
D03*
X145039D02*
D03*
X135039D02*
D03*
X125039D02*
D03*
X115039D02*
D03*
X105039D02*
D03*
X95039D02*
D03*
X85039D02*
D03*
X75039D02*
D03*
X65039D02*
D03*
X55039D02*
D03*
X45039D02*
D03*
X35039D02*
D03*
X25039D02*
D03*
X15039D02*
D03*
X5039D02*
D03*
X-4961D02*
D03*
X175039Y-15748D02*
D03*
X165039D02*
D03*
X155039D02*
D03*
X145039D02*
D03*
X135039D02*
D03*
X125039D02*
D03*
X115039D02*
D03*
X105039D02*
D03*
X95039D02*
D03*
X85039D02*
D03*
X75039D02*
D03*
X65039D02*
D03*
X55039D02*
D03*
X45039D02*
D03*
X35039D02*
D03*
X25039D02*
D03*
X15039D02*
D03*
X5039D02*
D03*
X-4961D02*
D03*
X175000Y-85600D02*
D03*
X165000D02*
D03*
X155000D02*
D03*
X145000D02*
D03*
X135000D02*
D03*
X65100D02*
D03*
X55100D02*
D03*
X45100D02*
D03*
X-92441Y-66142D02*
D03*
X-82441D02*
D03*
X-72441D02*
D03*
X79291Y27165D02*
D03*
X69291Y17165D02*
D03*
X79291D02*
D03*
X69291Y7165D02*
D03*
X79291D02*
D03*
X95100Y7500D02*
D03*
X105100D02*
D03*
X115100D02*
D03*
X125100D02*
D03*
X58661Y27165D02*
D03*
X48661Y17165D02*
D03*
X58661D02*
D03*
X48661Y7165D02*
D03*
X58661D02*
D03*
X79291Y57244D02*
D03*
Y67244D02*
D03*
X69291Y47244D02*
D03*
Y57244D02*
D03*
Y67244D02*
D03*
X48661Y57244D02*
D03*
Y47244D02*
D03*
X58661Y67244D02*
D03*
Y57244D02*
D03*
Y47244D02*
D03*
D20*
X-92126Y-6299D02*
D03*
X-51181Y16614D02*
D03*
X69291Y27165D02*
D03*
X48661D02*
D03*
X79291Y47244D02*
D03*
X48661Y67244D02*
D03*
D21*
X-62441Y-76378D02*
D03*
X-5400Y-85200D02*
D03*
X-132700Y-5500D02*
D03*
X28268Y17480D02*
D03*
X185039Y-74803D02*
D03*
Y-15748D02*
D03*
X185000Y-85600D02*
D03*
X35100D02*
D03*
X-62441Y-66142D02*
D03*
X135100Y7500D02*
D03*
D22*
X17400Y89300D02*
D03*
Y81420D02*
D03*
X41420Y89300D02*
D03*
Y81420D02*
D03*
X25470Y77480D02*
D03*
X33350D02*
D03*
D23*
X-29528Y55118D02*
D03*
D24*
X-11218Y68898D02*
D03*
Y45278D02*
D03*
D25*
X-50200Y-42500D02*
D03*
X39600Y35800D02*
D03*
X97638Y32677D02*
D03*
Y92913D02*
D03*
X137008D02*
D03*
Y32677D02*
D03*
D26*
X158071Y45669D02*
D03*
Y84252D02*
D03*
Y62992D02*
D03*
Y24409D02*
D03*
X189599Y73707D02*
D03*
X166764Y64652D02*
D03*
Y73707D02*
D03*
X189617Y35006D02*
D03*
X166783D02*
D03*
Y25950D02*
D03*
M02*
