G04 Layer_Color=16711935*
%FSLAX25Y25*%
%MOIN*%
G70*
G01*
G75*
%ADD33C,0.06706*%
%ADD34R,0.06706X0.06706*%
%ADD35R,0.06706X0.06706*%
%ADD36C,0.05910*%
%ADD37O,0.06310X0.13790*%
%ADD38O,0.15360X0.06310*%
%ADD39C,0.01000*%
D33*
X-92126Y-36299D02*
D03*
Y-26299D02*
D03*
Y-16299D02*
D03*
X-92441Y-76378D02*
D03*
X-82441D02*
D03*
X-72441D02*
D03*
X-45400Y-85200D02*
D03*
X-35400D02*
D03*
X-25400D02*
D03*
X-15400D02*
D03*
X-51181Y26614D02*
D03*
Y36614D02*
D03*
Y46614D02*
D03*
Y56614D02*
D03*
Y66614D02*
D03*
Y76614D02*
D03*
Y86614D02*
D03*
X-162700Y-5500D02*
D03*
X-152700D02*
D03*
X-142700D02*
D03*
X-1732Y7480D02*
D03*
Y17480D02*
D03*
X8268Y7480D02*
D03*
Y17480D02*
D03*
X18268Y7480D02*
D03*
Y17480D02*
D03*
X28268Y7480D02*
D03*
X175039Y-74803D02*
D03*
X165039D02*
D03*
X155039D02*
D03*
X145039D02*
D03*
X135039D02*
D03*
X125039D02*
D03*
X115039D02*
D03*
X105039D02*
D03*
X95039D02*
D03*
X85039D02*
D03*
X75039D02*
D03*
X65039D02*
D03*
X55039D02*
D03*
X45039D02*
D03*
X35039D02*
D03*
X25039D02*
D03*
X15039D02*
D03*
X5039D02*
D03*
X-4961D02*
D03*
X175039Y-15748D02*
D03*
X165039D02*
D03*
X155039D02*
D03*
X145039D02*
D03*
X135039D02*
D03*
X125039D02*
D03*
X115039D02*
D03*
X105039D02*
D03*
X95039D02*
D03*
X85039D02*
D03*
X75039D02*
D03*
X65039D02*
D03*
X55039D02*
D03*
X45039D02*
D03*
X35039D02*
D03*
X25039D02*
D03*
X15039D02*
D03*
X5039D02*
D03*
X-4961D02*
D03*
X175000Y-85600D02*
D03*
X165000D02*
D03*
X155000D02*
D03*
X145000D02*
D03*
X135000D02*
D03*
X65100D02*
D03*
X55100D02*
D03*
X45100D02*
D03*
X-92441Y-66142D02*
D03*
X-82441D02*
D03*
X-72441D02*
D03*
X79291Y27165D02*
D03*
X69291Y17165D02*
D03*
X79291D02*
D03*
X69291Y7165D02*
D03*
X79291D02*
D03*
X95100Y7500D02*
D03*
X105100D02*
D03*
X115100D02*
D03*
X125100D02*
D03*
X58661Y27165D02*
D03*
X48661Y17165D02*
D03*
X58661D02*
D03*
X48661Y7165D02*
D03*
X58661D02*
D03*
X79291Y57244D02*
D03*
Y67244D02*
D03*
X69291Y47244D02*
D03*
Y57244D02*
D03*
Y67244D02*
D03*
X48661Y57244D02*
D03*
Y47244D02*
D03*
X58661Y67244D02*
D03*
Y57244D02*
D03*
Y47244D02*
D03*
D34*
X-92126Y-6299D02*
D03*
X-51181Y16614D02*
D03*
X69291Y27165D02*
D03*
X48661D02*
D03*
X79291Y47244D02*
D03*
X48661Y67244D02*
D03*
D35*
X-62441Y-76378D02*
D03*
X-5400Y-85200D02*
D03*
X-132700Y-5500D02*
D03*
X28268Y17480D02*
D03*
X185039Y-74803D02*
D03*
Y-15748D02*
D03*
X185000Y-85600D02*
D03*
X35100D02*
D03*
X-62441Y-66142D02*
D03*
X135100Y7500D02*
D03*
D36*
X17400Y89300D02*
D03*
Y81420D02*
D03*
X41420Y89300D02*
D03*
Y81420D02*
D03*
X25470Y77480D02*
D03*
X33350D02*
D03*
D37*
X-29528Y55118D02*
D03*
D38*
X-11218Y68898D02*
D03*
Y45278D02*
D03*
D39*
X196850Y88583D02*
G03*
X187008Y98425I-9843J0D01*
G01*
Y-98425D02*
G03*
X196850Y-88583I0J9843D01*
G01*
X-196850D02*
G03*
X-187008Y-98425I9843J0D01*
G01*
Y98425D02*
G03*
X-196850Y88583I0J-9843D01*
G01*
X-187008Y-98425D02*
X187008D01*
X-187008Y98425D02*
X187008D01*
M02*
