G04 Layer_Color=8388736*
%FSLAX25Y25*%
%MOIN*%
G70*
G01*
G75*
%ADD28R,0.08674X0.08674*%
%ADD29R,0.10249X0.13792*%
%ADD30R,0.10249X0.04737*%
%ADD31R,0.05131X0.07493*%
%ADD32R,0.03950X0.04343*%
%ADD33C,0.06706*%
%ADD34R,0.06706X0.06706*%
%ADD35R,0.06706X0.06706*%
%ADD36C,0.05910*%
%ADD37O,0.06310X0.13790*%
%ADD38O,0.15360X0.06310*%
D28*
X137008Y92913D02*
D03*
Y32677D02*
D03*
X97638D02*
D03*
Y92913D02*
D03*
D29*
X189599Y73707D02*
D03*
X189617Y35006D02*
D03*
D30*
X166764Y64652D02*
D03*
Y73707D02*
D03*
Y82762D02*
D03*
X166783Y25950D02*
D03*
Y35006D02*
D03*
Y44061D02*
D03*
D31*
X158071Y84252D02*
D03*
X147441D02*
D03*
X158071Y62992D02*
D03*
X147441D02*
D03*
X158071Y45669D02*
D03*
X147441D02*
D03*
X158071Y24409D02*
D03*
X147441D02*
D03*
D32*
X150000Y77165D02*
D03*
X155512D02*
D03*
X150000Y70079D02*
D03*
X155512D02*
D03*
X150000Y38583D02*
D03*
X155512D02*
D03*
X150000Y31496D02*
D03*
X155512D02*
D03*
D33*
X-92126Y-36299D02*
D03*
Y-26299D02*
D03*
Y-16299D02*
D03*
X-92441Y-76378D02*
D03*
X-82441D02*
D03*
X-72441D02*
D03*
X-45400Y-85200D02*
D03*
X-35400D02*
D03*
X-25400D02*
D03*
X-15400D02*
D03*
X-51181Y26614D02*
D03*
Y36614D02*
D03*
Y46614D02*
D03*
Y56614D02*
D03*
Y66614D02*
D03*
Y76614D02*
D03*
Y86614D02*
D03*
X-162700Y-5500D02*
D03*
X-152700D02*
D03*
X-142700D02*
D03*
X-1732Y7480D02*
D03*
Y17480D02*
D03*
X8268Y7480D02*
D03*
Y17480D02*
D03*
X18268Y7480D02*
D03*
Y17480D02*
D03*
X28268Y7480D02*
D03*
X175039Y-74803D02*
D03*
X165039D02*
D03*
X155039D02*
D03*
X145039D02*
D03*
X135039D02*
D03*
X125039D02*
D03*
X115039D02*
D03*
X105039D02*
D03*
X95039D02*
D03*
X85039D02*
D03*
X75039D02*
D03*
X65039D02*
D03*
X55039D02*
D03*
X45039D02*
D03*
X35039D02*
D03*
X25039D02*
D03*
X15039D02*
D03*
X5039D02*
D03*
X-4961D02*
D03*
X175039Y-15748D02*
D03*
X165039D02*
D03*
X155039D02*
D03*
X145039D02*
D03*
X135039D02*
D03*
X125039D02*
D03*
X115039D02*
D03*
X105039D02*
D03*
X95039D02*
D03*
X85039D02*
D03*
X75039D02*
D03*
X65039D02*
D03*
X55039D02*
D03*
X45039D02*
D03*
X35039D02*
D03*
X25039D02*
D03*
X15039D02*
D03*
X5039D02*
D03*
X-4961D02*
D03*
X175000Y-85600D02*
D03*
X165000D02*
D03*
X155000D02*
D03*
X145000D02*
D03*
X135000D02*
D03*
X65100D02*
D03*
X55100D02*
D03*
X45100D02*
D03*
X-92441Y-66142D02*
D03*
X-82441D02*
D03*
X-72441D02*
D03*
X79291Y27165D02*
D03*
X69291Y17165D02*
D03*
X79291D02*
D03*
X69291Y7165D02*
D03*
X79291D02*
D03*
X95100Y7500D02*
D03*
X105100D02*
D03*
X115100D02*
D03*
X125100D02*
D03*
X58661Y27165D02*
D03*
X48661Y17165D02*
D03*
X58661D02*
D03*
X48661Y7165D02*
D03*
X58661D02*
D03*
X79291Y57244D02*
D03*
Y67244D02*
D03*
X69291Y47244D02*
D03*
Y57244D02*
D03*
Y67244D02*
D03*
X48661Y57244D02*
D03*
Y47244D02*
D03*
X58661Y67244D02*
D03*
Y57244D02*
D03*
Y47244D02*
D03*
D34*
X-92126Y-6299D02*
D03*
X-51181Y16614D02*
D03*
X69291Y27165D02*
D03*
X48661D02*
D03*
X79291Y47244D02*
D03*
X48661Y67244D02*
D03*
D35*
X-62441Y-76378D02*
D03*
X-5400Y-85200D02*
D03*
X-132700Y-5500D02*
D03*
X28268Y17480D02*
D03*
X185039Y-74803D02*
D03*
Y-15748D02*
D03*
X185000Y-85600D02*
D03*
X35100D02*
D03*
X-62441Y-66142D02*
D03*
X135100Y7500D02*
D03*
D36*
X17400Y89300D02*
D03*
Y81420D02*
D03*
X41420Y89300D02*
D03*
Y81420D02*
D03*
X25470Y77480D02*
D03*
X33350D02*
D03*
D37*
X-29528Y55118D02*
D03*
D38*
X-11218Y68898D02*
D03*
Y45278D02*
D03*
M02*
