G04 Layer_Color=16711935*
%FSLAX25Y25*%
%MOIN*%
G70*
G01*
G75*
%ADD40C,0.00394*%
D40*
X170898Y60518D02*
X185465D01*
X170898Y86896D02*
X185465D01*
Y60518D02*
Y86896D01*
X170898Y60518D02*
Y86896D01*
X159449Y80709D02*
Y87795D01*
X146063Y80709D02*
Y87795D01*
Y80709D02*
X159449D01*
X146063Y87795D02*
X159449D01*
X149311Y75295D02*
Y79036D01*
X156201Y75295D02*
Y79036D01*
X149311D02*
X156201D01*
X149311Y75295D02*
X156201D01*
X149311Y68209D02*
Y71949D01*
X156201Y68209D02*
Y71949D01*
X149311D02*
X156201D01*
X149311Y68209D02*
X156201D01*
X159449Y59449D02*
Y66535D01*
X146063Y59449D02*
Y66535D01*
Y59449D02*
X159449D01*
X146063Y66535D02*
X159449D01*
X170917Y21817D02*
X185483D01*
X170917Y48195D02*
X185483D01*
Y21817D02*
Y48195D01*
X170917Y21817D02*
Y48195D01*
X159449Y42126D02*
Y49213D01*
X146063Y42126D02*
Y49213D01*
Y42126D02*
X159449D01*
X146063Y49213D02*
X159449D01*
X149311Y36713D02*
Y40453D01*
X156201Y36713D02*
Y40453D01*
X149311D02*
X156201D01*
X149311Y36713D02*
X156201D01*
X149311Y29626D02*
Y33366D01*
X156201Y29626D02*
Y33366D01*
X149311D02*
X156201D01*
X149311Y29626D02*
X156201D01*
X159449Y20866D02*
Y27953D01*
X146063Y20866D02*
Y27953D01*
Y20866D02*
X159449D01*
X146063Y27953D02*
X159449D01*
M02*
