M48
;Layer_Color=9474304
;FILE_FORMAT=2:5
INCH,TZ
;TYPE=PLATED
T1F00S00C0.01378
T2F00S00C0.03540
T4F00S00C0.03543
%
T01
X-50200Y-42500
X39600Y35800
X97638Y32677
X137008
X158071Y24409
X166783Y25950
Y35006
X158071Y45669
Y62992
X166764Y64652
Y73707
X158071Y84252
X137008Y92913
X97638
X189599Y73707
X189617Y35006
T02
X17400Y81420
Y89300
X25470Y77480
X33350
X41420Y81420
Y89300
T04
X85039Y-74803
X95039
X105039
X115039
X125039
X135039
X145039
X155039
X165039
X175039
X185039
X185000Y-85600
X175000
X165000
X155000
X145000
X135000
X135039Y-15748
X145039
X155039
X165039
X175039
X185039
X125039
X115039
X105039
X95039
X85039
X79291Y7165
Y17165
X95100Y7500
X105100
X115100
X125100
X135100
X69291Y7165
Y17165
X58661
X48661
Y7165
X58661
X55039Y-15748
X65039
X75039
X45039
X35039
X25039
X15039
X5039
X-4961
X-1732Y7480
X8268
X18268
X28268
X25039Y-74803
X35039
X45039
X55039
X65039
X75039
X65100Y-85600
X55100
X45100
X35100
X15039Y-74803
X5039
X-4961
X-5400Y-85200
X-15400
X-25400
X-35400
X-45400
X-62441Y-76378
X-72441
Y-66142
X-62441
X-51181Y16614
X-92126Y-6299
Y-16299
Y-26299
Y-36299
X-92441Y-66142
X-82441
Y-76378
X-92441
X-132700Y-5500
X-142700
X-152700
X-162700
X-51181Y26614
Y36614
Y46614
Y56614
Y66614
Y76614
Y86614
X-1732Y17480
X8268
X18268
X28268
X48661Y27165
X58661
X69291
Y47244
Y57244
Y67244
X58661
X48661
Y57244
Y47244
X58661
Y57244
X79291
Y47244
Y67244
Y27165
M30
